<svg aria-hidden="true" style="position:absolute;width:0;height:0;overflow:hidden" xmlns="http://www.w3.org/2000/svg"><defs><symbol id="icon-arrow" viewBox="0 0 32 32"><path stroke-linejoin="round" stroke-linecap="round" stroke-width="2.6" d="m15 28 13-13m0 0L15 2m13 13H2"/></symbol><symbol id="icon-burger" viewBox="0 0 64 32"><path fill="none" stroke="#7e847f" style="stroke:var(--color1, #7e847f)" stroke-linejoin="round" stroke-linecap="round" stroke-width="4" d="M56 20.667H8M56 10H8"/></symbol><symbol id="icon-close" viewBox="0 0 32 32"><path stroke-linejoin="round" stroke-linecap="round" stroke-width="4.571" d="M29.333 2.667 2.666 29.334m0-26.667 26.667 26.667"/></symbol><symbol id="icon-dumbbell" viewBox="0 0 43 32"><path d="M6.933 4.571h-3.2c-.887 0-1.6.764-1.6 1.714v7.429h-1.6c-.293 0-.533.257-.533.571v3.429c0 .314.24.571.533.571h1.6v7.429c0 .95.713 1.714 1.6 1.714h3.2c.887 0 1.6-.764 1.6-1.714V6.285c0-.95-.713-1.714-1.6-1.714zm35.2 9.143h-1.6V6.285c0-.95-.713-1.714-1.6-1.714h-3.2c-.887 0-1.6.764-1.6 1.714v19.429c0 .95.713 1.714 1.6 1.714h3.2c.887 0 1.6-.764 1.6-1.714v-7.429h1.6c.293 0 .533-.257.533-.571v-3.429c0-.314-.24-.571-.533-.571zM30.4 0h-3.2c-.887 0-1.6.764-1.6 1.714v12h-8.533v-12c0-.95-.713-1.714-1.6-1.714h-3.2c-.887 0-1.6.764-1.6 1.714v28.571c0 .95.713 1.714 1.6 1.714h3.2c.887 0 1.6-.764 1.6-1.714v-12H25.6v12c0 .95.713 1.714 1.6 1.714h3.2c.887 0 1.6-.764 1.6-1.714V1.714C32 .764 31.287 0 30.4 0z"/></symbol><symbol id="icon-facebook" viewBox="0 0 32 32"><path fill="#f6f6f6" style="fill:var(--color2, #f6f6f6)" opacity=".8" d="M19.52 4.64h.96v3.6h-1.2c-.48 0-.96 0-1.2.24s-.24.48-.24 1.04v1.28h2.64v3.04h-2.64v13.2h-4.08V13.76H11.6v-3.04h2.16V9.68c0-1.76.24-3.04.72-3.6.72-1.04 2.16-1.52 4.32-1.52.24.08.48.08.72.08z"/></symbol><symbol id="icon-heart" viewBox="0 0 32 32"><path fill="none" stroke="#f6f6f6" style="stroke:var(--color2, #f6f6f6)" stroke-linejoin="round" stroke-linecap="round" stroke-width="2.4" d="M27.787 6.147a7.345 7.345 0 0 0-5.187-2.15 7.33 7.33 0 0 0-5.187 2.15L16 7.56l-1.413-1.413a7.333 7.333 0 0 0-10.374 0 7.333 7.333 0 0 0 0 10.374L16 28.308l11.787-11.787a7.345 7.345 0 0 0 2.15-5.187 7.33 7.33 0 0 0-2.15-5.187z"/></symbol><symbol id="icon-instagram" viewBox="0 0 32 32"><path fill="#f6f6f6" style="fill:var(--color2, #f6f6f6)" opacity=".8" d="M28.718 10.756a9.264 9.264 0 0 0-.596-3.145 6.547 6.547 0 0 0-3.743-3.737 9.42 9.42 0 0 0-3.108-.596c-1.368-.061-1.801-.078-5.273-.078s-3.916 0-5.274.078a9.413 9.413 0 0 0-3.106.596 6.541 6.541 0 0 0-3.743 3.737 9.288 9.288 0 0 0-.596 3.101c-.061 1.367-.08 1.8-.08 5.265s0 3.909.08 5.265a9.335 9.335 0 0 0 .596 3.104 6.548 6.548 0 0 0 3.744 3.735 9.37 9.37 0 0 0 3.106.639c1.369.061 1.803.08 5.274.08s3.916 0 5.274-.08a9.362 9.362 0 0 0 3.108-.595 6.555 6.555 0 0 0 3.743-3.737 9.35 9.35 0 0 0 .596-3.104c.061-1.365.08-1.798.08-5.265-.003-3.466-.003-3.906-.082-5.264zM15.99 22.531c-3.631 0-6.572-2.936-6.572-6.561s2.941-6.561 6.572-6.561c3.628 0 6.572 2.936 6.572 6.561s-2.944 6.561-6.572 6.561zm6.834-11.835a1.53 1.53 0 1 1 0-3.06 1.53 1.53 0 1 1 0 3.06z"/><path fill="#f6f6f6" style="fill:var(--color2, #f6f6f6)" opacity=".8" d="M15.992 19.976a4.004 4.004 0 1 0 0-8.009 4.004 4.004 0 0 0 0 8.009z"/></symbol><symbol id="icon-man" viewBox="0 0 32 32"><path fill="#7e847f" style="fill:var(--color1, #7e847f)" d="M32 16c0 8.837-7.163 16-16 16S0 24.837 0 16 7.163 0 16 0s16 7.163 16 16z"/><path fill="#f6f6f6" style="fill:var(--color2, #f6f6f6)" d="M25.098 11.634a.79.79 0 0 0-1.111-.099l-2.188 1.838-1.006-2.493a.757.757 0 0 0-.153-.241 2.148 2.148 0 0 0-1.055-1.078 2.158 2.158 0 0 0-.655-.174c-.049-.025-.093-.059-.148-.076l-3.85-1.073a.792.792 0 0 0-.611.083.77.77 0 0 0-.479.448l-1.45 3.728a.791.791 0 0 0 .451 1.022.79.79 0 0 0 1.021-.452l1.225-3.148 1.754.488c-.043.069-.089.134-.124.208l-2.248 4.873c-.032.072-.05.144-.073.218l-2.732 4.58-4.572 1.53a1.168 1.168 0 0 0 1.387 1.879l4.679-1.611c.143-.104.247-.24.326-.387.059-.062.126-.112.171-.189l1.629-2.731 2.891 2.464-3.094 3.486a1.167 1.167 0 0 0 1.747 1.547l3.861-4.349c.12-.134.192-.289.24-.451.029-.088.029-.179.036-.27 0-.046.017-.088.014-.131a1.142 1.142 0 0 0-.401-.849l-2.661-2.269c.192-.183.355-.4.473-.655l1.724-3.733.552 1.471a.742.742 0 0 0 .159.366.754.754 0 0 0 .303.211c.012.006.025.007.039.01a.738.738 0 0 0 .489.024l.003-.001c.024-.006.049-.001.073-.012a.8.8 0 0 0 .311-.226l3.14-2.665c.334-.281.193-.777-.088-1.111zM21.126 9.735a2.201 2.201 0 1 0 0-4.402 2.201 2.201 0 0 0 0 4.402z"/></symbol><symbol id="icon-quotes" viewBox="0 0 38 32"><path fill="#f6f6f6" style="fill:var(--color2, #f6f6f6)" d="M8.302 17.203c2.319-.919 4.178-.678 5.578.722s1.816 3.631 1.247 6.694c-.438 2.275-1.4 4.025-2.887 5.25-1.444 1.181-3.128 1.772-5.053 1.772-2.625 0-4.441-1.006-5.447-3.019-1.006-2.056-1.203-4.812-.591-8.269.35-1.881.919-3.784 1.706-5.709s1.838-3.894 3.15-5.906c1.313-2.013 3.019-3.763 5.119-5.25S15.543 1.038 18.08.6l-.656 6.956c-2.144.438-4.047 1.553-5.709 3.347-1.663 1.75-2.8 3.85-3.413 6.3zm19.753 0c2.319-.919 4.178-.678 5.578.722s1.816 3.631 1.247 6.694c-.438 2.275-1.4 4.025-2.887 5.25-1.444 1.181-3.128 1.772-5.053 1.772-2.625 0-4.441-1.006-5.447-3.019-1.006-2.056-1.203-4.812-.591-8.269.35-1.881.919-3.784 1.706-5.709s1.837-3.894 3.15-5.906 3.019-3.763 5.119-5.25A16.84 16.84 0 0 1 37.833.6l-.656 6.956c-2.144.438-4.047 1.553-5.709 3.347-1.663 1.75-2.8 3.85-3.413 6.3z"/></symbol><symbol id="icon-search" viewBox="0 0 32 32"><path stroke-linejoin="round" stroke-linecap="round" stroke-width="2.667" d="M14.667 25.333c5.891 0 10.667-4.776 10.667-10.667S20.558 3.999 14.667 3.999 4 8.775 4 14.666s4.776 10.667 10.667 10.667zM28 28l-5.8-5.8"/></symbol><symbol id="icon-star" viewBox="0 0 34 32"><path d="M14.89 2.282c.737-2.268 3.945-2.268 4.682 0l2.08 6.402a2.463 2.463 0 0 0 2.341 1.701h6.731c2.384 0 3.376 3.051 1.447 4.453l-5.446 3.957a2.46 2.46 0 0 0-.894 2.752l2.08 6.402c.737 2.268-1.859 4.154-3.788 2.752l-5.446-3.957a2.461 2.461 0 0 0-2.894 0l-5.446 3.957c-1.929 1.402-4.525-.484-3.788-2.752l2.08-6.402a2.46 2.46 0 0 0-.894-2.752l-5.446-3.957c-1.929-1.402-.938-4.453 1.447-4.453h6.731a2.462 2.462 0 0 0 2.341-1.701l2.08-6.402z"/></symbol><symbol id="icon-trash" viewBox="0 0 32 32"><path stroke-linejoin="round" stroke-linecap="round" stroke-width="2.6" d="M21.333 8V6.933c0-1.493 0-2.24-.291-2.811a2.666 2.666 0 0 0-1.165-1.165c-.57-.291-1.317-.291-2.811-.291h-2.133c-1.493 0-2.24 0-2.811.291-.502.256-.91.664-1.165 1.165-.291.57-.291 1.317-.291 2.811V8m2.667 7.333V22m5.334-6.667V22M4 8h24m-2.667 0v14.933c0 2.24 0 3.36-.436 4.216a3.996 3.996 0 0 1-1.748 1.748c-.856.436-1.976.436-4.216.436h-5.867c-2.24 0-3.36 0-4.216-.436a3.996 3.996 0 0 1-1.748-1.748c-.436-.856-.436-1.976-.436-4.216V8"/></symbol><symbol id="icon-youtube" viewBox="0 0 32 32"><path fill="#f6f6f6" style="fill:var(--color2, #f6f6f6)" opacity=".8" d="M24.24 6c-1.36-.08-4.16-.16-8.4-.16h-.56c-4.08 0-6.8.08-8.16.24-1.84.16-3.12.64-3.84 1.28-.64.56-1.12 1.6-1.28 2.96-.08.88-.16 2.72-.16 5.52v.4c0 2.64.08 4.48.24 5.36.24 1.28.64 2.24 1.44 2.8.8.64 2.16 1.04 4.08 1.2 1.36.08 4.16.16 8.4.16h.56c4.08 0 6.8-.08 8.16-.24 1.84-.16 3.12-.64 3.84-1.28.64-.56 1.12-1.6 1.28-2.96.08-.88.16-2.72.16-5.52v-.4c0-2.64-.08-4.48-.24-5.36-.24-1.28-.64-2.24-1.44-2.8-.8-.64-2.16-1.04-4.08-1.2zm-3.12 9.84-8.8 5.28V10.56l8.8 5.28z"/></symbol></defs></svg>
<svg xmlns="http://www.w3.org/2000/svg" aria-hidden="true" style="position:absolute;width:0;height:0;overflow:hidden"><defs><symbol id="icon-quotes" viewBox="0 0 32 32"><path fill="#bfbaba" d="M0 0h32v32H0V0z" style="fill:var(--color1, #bfbaba)"/><path fill="#f6f6f6" d="M-405.333-632h960v2144h-960V-632z" style="fill:var(--color2, #f6f6f6)"/><path fill="#7e847f" d="M-361.333-21.333H41.334c18.41 0 33.333 14.924 33.333 33.333v134.667c0 18.41-14.924 33.333-33.333 33.333h-402.667c-18.409 0-33.333-14.924-33.333-33.333V12c0-18.41 14.924-33.333 33.333-33.333z" style="fill:var(--color3, #7e847f)"/><path fill="#f6f6f6" d="M8.201 17.468c1.546-.612 2.785-.452 3.719.481s1.21 2.421.831 4.462c-.292 1.517-.933 2.683-1.925 3.5-.962.788-2.085 1.181-3.369 1.181-1.75 0-2.96-.671-3.631-2.013-.671-1.371-.802-3.208-.394-5.512.233-1.254.613-2.523 1.137-3.806s1.225-2.596 2.1-3.937c.875-1.342 2.013-2.508 3.413-3.5s2.946-1.633 4.638-1.925l-.438 4.637c-1.429.292-2.698 1.035-3.806 2.231-1.108 1.167-1.867 2.567-2.275 4.2zm13.169 0c1.546-.612 2.785-.452 3.719.481s1.21 2.421.831 4.462c-.292 1.517-.933 2.683-1.925 3.5-.963.788-2.085 1.181-3.369 1.181-1.75 0-2.96-.671-3.631-2.013-.671-1.371-.802-3.208-.394-5.512.233-1.254.613-2.523 1.138-3.806s1.225-2.596 2.1-3.937 2.012-2.508 3.412-3.5a11.225 11.225 0 0 1 4.638-1.925l-.438 4.637c-1.429.292-2.698 1.035-3.806 2.231-1.108 1.167-1.867 2.567-2.275 4.2z" style="fill:var(--color2, #f6f6f6)"/></symbol><symbol id="icon-man" viewBox="0 0 34 32"><path fill="#bfbaba" d="M0 0h34v32H0V0z" style="fill:var(--color1, #bfbaba)"/><path fill="#f6f6f6" d="M-80-980h1440v3216H-80V-980z" style="fill:var(--color2, #f6f6f6)"/><path fill="#7e847f" d="M-14-64h604c27.614 0 50 22.386 50 50v202c0 27.614-22.386 50-50 50H-14c-27.614 0-50-22.386-50-50V-14c0-27.614 22.386-50 50-50z" style="fill:var(--color3, #7e847f)"/><path fill="#f6f6f6" d="M32 16c0 8.837-7.163 16-16 16S0 24.837 0 16 7.163 0 16 0s16 7.163 16 16z" opacity=".1" style="fill:var(--color2, #f6f6f6)"/><path fill="#f6f6f6" d="M24.729 11.907a.77.77 0 0 0-1.066-.093l-2.099 1.723-.965-2.337a.71.71 0 0 0-.146-.226 2.033 2.033 0 0 0-1.012-1.011 2.129 2.129 0 0 0-.628-.164c-.047-.024-.089-.055-.142-.071l-3.694-1.006a.773.773 0 0 0-.586.078.731.731 0 0 0-.46.42l-1.391 3.495a.738.738 0 0 0 .432.959.765.765 0 0 0 .98-.423l1.175-2.951 1.683.457c-.041.065-.085.126-.119.195l-2.157 4.568c-.031.067-.048.135-.07.205l-2.621 4.294-4.387 1.434a1.08 1.08 0 0 0-.235 1.531 1.139 1.139 0 0 0 1.566.231l4.489-1.511c.137-.098.237-.225.313-.363.056-.058.121-.105.164-.178l1.563-2.56 2.774 2.31-2.968 3.268a1.076 1.076 0 0 0 .095 1.543c.462.402 1.17.36 1.582-.093l3.704-4.078c.115-.126.184-.271.23-.422.028-.082.028-.168.034-.253 0-.043.017-.082.013-.122a1.062 1.062 0 0 0-.385-.796l-2.553-2.127c.184-.171.34-.375.453-.614l1.654-3.499.53 1.379a.683.683 0 0 0 .153.343.73.73 0 0 0 .29.198c.011.005.024.007.038.01a.72.72 0 0 0 .47.023l.003-.001c.023-.005.047-.001.07-.011a.752.752 0 0 0 .298-.212l3.013-2.498c.32-.263.185-.729-.084-1.042zM20.919 10.126c1.166 0 2.111-.924 2.111-2.063S22.085 6 20.919 6c-1.166 0-2.111.924-2.111 2.063s.945 2.063 2.111 2.063z" style="fill:var(--color2, #f6f6f6)"/></symbol></defs></svg>
<svg xmlns="http://www.w3.org/2000/svg" aria-hidden="true" style="position:absolute;width:0;height:0;overflow:hidden"><defs><symbol id="icon-dumbbell" viewBox="0 0 32 32"><path d="M7.36 9.143H5.44c-.532 0-.96.459-.96 1.029v4.457h-.96c-.176 0-.32.154-.32.343v2.057c0 .188.144.343.32.343h.96v4.457c0 .57.428 1.028.96 1.028h1.92c.532 0 .96-.459.96-1.028V10.172c0-.57-.428-1.029-.96-1.029zm21.12 5.486h-.96v-4.457c0-.57-.428-1.029-.96-1.029h-1.92c-.532 0-.96.459-.96 1.029v11.657c0 .57.428 1.028.96 1.028h1.92c.532 0 .96-.459.96-1.028v-4.457h.96c.176 0 .32-.154.32-.343v-2.057c0-.189-.144-.343-.32-.343zM21.44 6.4h-1.92c-.532 0-.96.459-.96 1.029v7.2h-5.12v-7.2c0-.57-.428-1.029-.96-1.029h-1.92c-.532 0-.96.459-.96 1.029v17.143c0 .57.428 1.029.96 1.029h1.92c.532 0 .96-.459.96-1.029v-7.2h5.12v7.2c0 .57.428 1.029.96 1.029h1.92c.532 0 .96-.459.96-1.029V7.429c0-.57-.428-1.029-.96-1.029z"/></symbol></defs></svg>
<svg xmlns="http://www.w3.org/2000/svg" aria-hidden="true" style="position:absolute;width:0;height:0;overflow:hidden"><defs><symbol id="icon-trash" viewBox="0 0 32 32"><path stroke-linecap="round" stroke-linejoin="round" stroke-width="2.6" d="M21.333 8V6.933c0-1.493 0-2.24-.291-2.811a2.666 2.666 0 0 0-1.165-1.165c-.57-.291-1.317-.291-2.811-.291h-2.133c-1.493 0-2.24 0-2.811.291-.502.256-.91.664-1.165 1.165-.291.57-.291 1.317-.291 2.811V8m2.667 7.333V22m5.334-6.667V22M4 8h24m-2.667 0v14.933c0 2.24 0 3.36-.436 4.216a3.996 3.996 0 0 1-1.748 1.748c-.856.436-1.976.436-4.216.436h-5.867c-2.24 0-3.36 0-4.216-.436a3.996 3.996 0 0 1-1.748-1.748c-.436-.856-.436-1.976-.436-4.216V8"/></symbol></defs></svg>
<svg xmlns="http://www.w3.org/2000/svg" aria-hidden="true" style="position:absolute;width:0;height:0;overflow:hidden"><defs><symbol id="icon-arrow" viewBox="0 0 32 32"><path fill="#bfbaba" d="M0 0h32v32H0V0z" style="fill:var(--color1, #bfbaba)"/><path fill="#f6f6f6" d="M-697.143-2381.714H160v5940.571h-857.143v-5940.571z" style="fill:var(--color2, #f6f6f6)"/><path fill="#e8e8e8" d="M-582.857-251.429H45.714c37.871 0 68.571 30.7 68.571 68.571v3620.571c0 37.871-30.7 68.571-68.571 68.571h-628.571c-37.871 0-68.571-30.7-68.571-68.571V-182.858c0-37.871 30.7-68.571 68.571-68.571z" style="fill:var(--color3, #e8e8e8)"/><path fill="#fff" d="M-571.429-41.143H34.285c18.935 0 34.286 15.35 34.286 34.286v308.571c0 18.935-15.35 34.286-34.286 34.286h-605.714c-18.935 0-34.286-15.35-34.286-34.286V-6.857c0-18.935 15.35-34.286 34.286-34.286z" style="fill:var(--color4, #fff)"/><path fill="none" stroke="#1b1b1b" stroke-linecap="round" stroke-linejoin="round" stroke-width="2.971" d="m15 28 13-13m0 0L15 2m13 13H2" style="stroke:var(--color5, #1b1b1b)"/></symbol></defs></svg>
<svg xmlns="http://www.w3.org/2000/svg" aria-hidden="true" style="position:absolute;width:0;height:0;overflow:hidden"><defs><symbol id="icon-star" viewBox="0 0 34 32"><path fill="#bfbaba" d="M0 0h34.462v32H0V0z" style="fill:var(--color1, #bfbaba)"/><path fill="#f6f6f6" d="M-418.462-3997.538h923.077V6397.539h-923.077V-3997.538z" style="fill:var(--color2, #f6f6f6)"/><path fill="#e8e8e8" d="M-295.385-610.462h676.923c40.784 0 73.846 33.062 73.846 73.846v4228.923c0 40.784-33.062 73.846-73.846 73.846h-676.923c-40.784 0-73.846-33.062-73.846-73.846V-536.616c0-40.784 33.062-73.846 73.846-73.846z" style="fill:var(--color3, #e8e8e8)"/><path fill="#fff" d="M-283.077-54.154h652.308c20.392 0 36.923 16.531 36.923 36.923v332.308c0 20.392-16.531 36.923-36.923 36.923h-652.308C-303.469 352-320 335.469-320 315.077V-17.231c0-20.392 16.531-36.923 36.923-36.923z" style="fill:var(--color4, #fff)"/><path fill="#eea10c" d="M14.89 2.282c.737-2.268 3.945-2.268 4.682 0l2.08 6.402a2.463 2.463 0 0 0 2.341 1.701h6.731c2.384 0 3.376 3.051 1.447 4.453l-5.446 3.957a2.46 2.46 0 0 0-.894 2.752l2.08 6.402c.737 2.268-1.859 4.154-3.788 2.752l-5.446-3.957a2.461 2.461 0 0 0-2.894 0l-5.446 3.957c-1.929 1.402-4.525-.484-3.788-2.752l2.08-6.402a2.46 2.46 0 0 0-.894-2.752l-5.446-3.957c-1.929-1.402-.938-4.453 1.447-4.453h6.731a2.462 2.462 0 0 0 2.341-1.701l2.08-6.402z" style="fill:var(--color5, #eea10c)"/></symbol></defs></svg>
