<svg aria-hidden="true" style="position:absolute;width:0;height:0;overflow:hidden" xmlns="http://www.w3.org/2000/svg"><defs><symbol id="icon-arrow" viewBox="0 0 32 32"><path stroke-linejoin="round" stroke-linecap="round" stroke-width="2.6" d="m15 28 13-13m0 0L15 2m13 13H2"/></symbol><symbol id="icon-burger" viewBox="0 0 64 32"><path fill="none" style="stroke" stroke-linejoin="round" stroke-linecap="round" stroke-width="4" d="M56 20.667H8M56 10H8"/></symbol><symbol id="icon-close" viewBox="0 0 32 32"><path stroke-linejoin="round" stroke-linecap="round" stroke-width="4.571" d="M29.333 2.667 2.666 29.334m0-26.667 26.667 26.667"/></symbol><symbol id="icon-dumbbell" viewBox="0 0 43 32"><path d="M6.933 4.571h-3.2c-.887 0-1.6.764-1.6 1.714v7.429h-1.6c-.293 0-.533.257-.533.571v3.429c0 .314.24.571.533.571h1.6v7.429c0 .95.713 1.714 1.6 1.714h3.2c.887 0 1.6-.764 1.6-1.714V6.285c0-.95-.713-1.714-1.6-1.714zm35.2 9.143h-1.6V6.285c0-.95-.713-1.714-1.6-1.714h-3.2c-.887 0-1.6.764-1.6 1.714v19.429c0 .95.713 1.714 1.6 1.714h3.2c.887 0 1.6-.764 1.6-1.714v-7.429h1.6c.293 0 .533-.257.533-.571v-3.429c0-.314-.24-.571-.533-.571zM30.4 0h-3.2c-.887 0-1.6.764-1.6 1.714v12h-8.533v-12c0-.95-.713-1.714-1.6-1.714h-3.2c-.887 0-1.6.764-1.6 1.714v28.571c0 .95.713 1.714 1.6 1.714h3.2c.887 0 1.6-.764 1.6-1.714v-12H25.6v12c0 .95.713 1.714 1.6 1.714h3.2c.887 0 1.6-.764 1.6-1.714V1.714C32 .764 31.287 0 30.4 0z"/></symbol><symbol id="icon-facebook" viewBox="0 0 32 32"><path style="fill" opacity=".8" d="M19.52 4.64h.96v3.6h-1.2c-.48 0-.96 0-1.2.24s-.24.48-.24 1.04v1.28h2.64v3.04h-2.64v13.2h-4.08V13.76H11.6v-3.04h2.16V9.68c0-1.76.24-3.04.72-3.6.72-1.04 2.16-1.52 4.32-1.52.24.08.48.08.72.08z"/></symbol><symbol id="icon-heart" viewBox="0 0 32 32"><path style="stroke, fill" stroke-linejoin="round" stroke-linecap="round" stroke-width="2.4" d="M27.787 6.147a7.345 7.345 0 0 0-5.187-2.15 7.33 7.33 0 0 0-5.187 2.15L16 7.56l-1.413-1.413a7.333 7.333 0 0 0-10.374 0 7.333 7.333 0 0 0 0 10.374L16 28.308l11.787-11.787a7.345 7.345 0 0 0 2.15-5.187 7.33 7.33 0 0 0-2.15-5.187z"/></symbol><symbol id="icon-instagram" viewBox="0 0 32 32"><path opacity=".8" d="M28.718 10.756a9.264 9.264 0 0 0-.596-3.145 6.547 6.547 0 0 0-3.743-3.737 9.42 9.42 0 0 0-3.108-.596c-1.368-.061-1.801-.078-5.273-.078s-3.916 0-5.274.078a9.413 9.413 0 0 0-3.106.596 6.541 6.541 0 0 0-3.743 3.737 9.288 9.288 0 0 0-.596 3.101c-.061 1.367-.08 1.8-.08 5.265s0 3.909.08 5.265a9.335 9.335 0 0 0 .596 3.104 6.548 6.548 0 0 0 3.744 3.735 9.37 9.37 0 0 0 3.106.639c1.369.061 1.803.08 5.274.08s3.916 0 5.274-.08a9.362 9.362 0 0 0 3.108-.595 6.555 6.555 0 0 0 3.743-3.737 9.35 9.35 0 0 0 .596-3.104c.061-1.365.08-1.798.08-5.265-.003-3.466-.003-3.906-.082-5.264zM15.99 22.531c-3.631 0-6.572-2.936-6.572-6.561s2.941-6.561 6.572-6.561c3.628 0 6.572 2.936 6.572 6.561s-2.944 6.561-6.572 6.561zm6.834-11.835a1.53 1.53 0 1 1 0-3.06 1.53 1.53 0 1 1 0 3.06z"/><path opacity=".8" d="M15.992 19.976a4.004 4.004 0 1 0 0-8.009 4.004 4.004 0 0 0 0 8.009z"/></symbol><symbol id="icon-man" viewBox="0 0 29 32"><path style="fill" d="M28.367 9.451a1.232 1.232 0 0 0-1.706-.149l-3.359 2.757-1.545-3.739a1.157 1.157 0 0 0-.234-.362 3.255 3.255 0 0 0-1.619-1.617 3.379 3.379 0 0 0-1.005-.262c-.075-.038-.142-.088-.227-.114l-5.911-1.61a1.242 1.242 0 0 0-.938.125 1.17 1.17 0 0 0-.736.672l-2.226 5.592a1.18 1.18 0 0 0 .692 1.534 1.224 1.224 0 0 0 1.568-.678l1.88-4.722 2.692.731c-.066.104-.137.201-.19.312l-3.451 7.309c-.05.107-.076.217-.112.328l-4.194 6.871-7.019 2.294a1.73 1.73 0 0 0-.376 2.45 1.82 1.82 0 0 0 2.506.369l7.182-2.417c.22-.156.38-.36.5-.58.09-.094.193-.168.262-.284l2.501-4.096 4.439 3.696-4.749 5.23a1.722 1.722 0 0 0 .152 2.469c.74.643 1.873.575 2.531-.149l5.927-6.524c.184-.201.294-.433.369-.676.044-.132.044-.269.055-.406 0-.069.027-.132.021-.196a1.705 1.705 0 0 0-.615-1.274l-4.084-3.403c.294-.274.544-.6.725-.983l2.646-5.599.848 2.206c.036.196.103.388.245.549.128.149.291.248.465.317.018.009.039.01.06.016.11.038.222.075.337.08.136.012.275-.005.415-.043l.005-.002c.037-.009.075-.002.112-.017.197-.073.348-.196.477-.34l4.82-3.998c.512-.421.296-1.166-.135-1.667zM22.271 6.602c1.866 0 3.378-1.478 3.378-3.301S24.137 0 22.271 0s-3.378 1.478-3.378 3.301 1.513 3.301 3.378 3.301z"/></symbol><symbol id="icon-quotes" viewBox="0 0 38 32"><path style="fill" d="M8.302 17.203c2.319-.919 4.178-.678 5.578.722s1.816 3.631 1.247 6.694c-.438 2.275-1.4 4.025-2.887 5.25-1.444 1.181-3.128 1.772-5.053 1.772-2.625 0-4.441-1.006-5.447-3.019-1.006-2.056-1.203-4.812-.591-8.269.35-1.881.919-3.784 1.706-5.709s1.838-3.894 3.15-5.906c1.313-2.013 3.019-3.763 5.119-5.25S15.543 1.038 18.08.6l-.656 6.956c-2.144.438-4.047 1.553-5.709 3.347-1.663 1.75-2.8 3.85-3.413 6.3zm19.753 0c2.319-.919 4.178-.678 5.578.722s1.816 3.631 1.247 6.694c-.438 2.275-1.4 4.025-2.887 5.25-1.444 1.181-3.128 1.772-5.053 1.772-2.625 0-4.441-1.006-5.447-3.019-1.006-2.056-1.203-4.812-.591-8.269.35-1.881.919-3.784 1.706-5.709s1.837-3.894 3.15-5.906 3.019-3.763 5.119-5.25A16.84 16.84 0 0 1 37.833.6l-.656 6.956c-2.144.438-4.047 1.553-5.709 3.347-1.663 1.75-2.8 3.85-3.413 6.3z"/></symbol><symbol id="icon-search" viewBox="0 0 32 32"><path stroke-linejoin="round" stroke-linecap="round" stroke-width="2.667" d="M14.667 25.333c5.891 0 10.667-4.776 10.667-10.667S20.558 3.999 14.667 3.999 4 8.775 4 14.666s4.776 10.667 10.667 10.667zM28 28l-5.8-5.8"/></symbol><symbol id="icon-star" viewBox="0 0 34 32"><path d="M14.89 2.282c.737-2.268 3.945-2.268 4.682 0l2.08 6.402a2.463 2.463 0 0 0 2.341 1.701h6.731c2.384 0 3.376 3.051 1.447 4.453l-5.446 3.957a2.46 2.46 0 0 0-.894 2.752l2.08 6.402c.737 2.268-1.859 4.154-3.788 2.752l-5.446-3.957a2.461 2.461 0 0 0-2.894 0l-5.446 3.957c-1.929 1.402-4.525-.484-3.788-2.752l2.08-6.402a2.46 2.46 0 0 0-.894-2.752l-5.446-3.957c-1.929-1.402-.938-4.453 1.447-4.453h6.731a2.462 2.462 0 0 0 2.341-1.701l2.08-6.402z"/></symbol><symbol id="icon-trash" viewBox="0 0 32 32"><path stroke-linejoin="round" stroke-linecap="round" stroke-width="2.6" d="M21.333 8V6.933c0-1.493 0-2.24-.291-2.811a2.666 2.666 0 0 0-1.165-1.165c-.57-.291-1.317-.291-2.811-.291h-2.133c-1.493 0-2.24 0-2.811.291-.502.256-.91.664-1.165 1.165-.291.57-.291 1.317-.291 2.811V8m2.667 7.333V22m5.334-6.667V22M4 8h24m-2.667 0v14.933c0 2.24 0 3.36-.436 4.216a3.996 3.996 0 0 1-1.748 1.748c-.856.436-1.976.436-4.216.436h-5.867c-2.24 0-3.36 0-4.216-.436a3.996 3.996 0 0 1-1.748-1.748c-.436-.856-.436-1.976-.436-4.216V8"/></symbol><symbol id="icon-youtube" viewBox="0 0 32 32"><path style="fill" opacity=".8" d="M24.24 6c-1.36-.08-4.16-.16-8.4-.16h-.56c-4.08 0-6.8.08-8.16.24-1.84.16-3.12.64-3.84 1.28-.64.56-1.12 1.6-1.28 2.96-.08.88-.16 2.72-.16 5.52v.4c0 2.64.08 4.48.24 5.36.24 1.28.64 2.24 1.44 2.8.8.64 2.16 1.04 4.08 1.2 1.36.08 4.16.16 8.4.16h.56c4.08 0 6.8-.08 8.16-.24 1.84-.16 3.12-.64 3.84-1.28.64-.56 1.12-1.6 1.28-2.96.08-.88.16-2.72.16-5.52v-.4c0-2.64-.08-4.48-.24-5.36-.24-1.28-.64-2.24-1.44-2.8-.8-.64-2.16-1.04-4.08-1.2zm-3.12 9.84-8.8 5.28V10.56l8.8 5.28z"/></symbol></defs></svg>
