<?xml version="1.0" standalone="no"?>
<!DOCTYPE svg PUBLIC "-//W3C//DTD SVG 20010904//EN"
 "http://www.w3.org/TR/2001/REC-SVG-20010904/DTD/svg10.dtd">
<svg version="1.0" xmlns="http://www.w3.org/2000/svg"
 width="700.000000pt" height="700.000000pt" viewBox="0 0 700.000000 700.000000"
 preserveAspectRatio="xMidYMid meet">
<metadata>
Created by potrace 1.14, written by Peter Selinger 2001-2017
</metadata>
<g transform="translate(0.000000,700.000000) scale(0.100000,-0.100000)"
fill="#000000" stroke="none">
<path d="M3280 6994 c-19 -2 -84 -9 -145 -14 -578 -56 -1180 -283 -1660 -625
-237 -169 -531 -446 -709 -670 -416 -521 -673 -1147 -748 -1820 -17 -154 -17
-585 0 -730 69 -588 254 -1099 567 -1570 126 -189 242 -332 410 -504 580 -595
1295 -943 2140 -1043 145 -17 576 -17 730 0 822 91 1556 447 2131 1034 203
206 348 390 487 618 274 449 432 915 499 1465 16 135 16 591 0 730 -100 846
-447 1557 -1043 2141 -555 542 -1249 874 -2029 970 -117 15 -553 27 -630 18z
m1483 -1184 c136 -42 257 -156 307 -287 28 -73 37 -201 20 -274 -45 -193 -205
-342 -399 -372 -283 -43 -547 184 -550 473 -3 207 152 411 350 464 80 22 195
20 272 -4z m-1106 -720 c219 -61 425 -119 458 -129 33 -11 85 -26 116 -35 84
-24 171 -85 221 -155 76 -106 93 -141 204 -418 60 -150 111 -273 114 -273 3 0
117 94 255 209 198 167 258 212 292 221 86 21 161 -20 207 -112 29 -59 34
-122 11 -155 -13 -18 -674 -587 -750 -646 -13 -9 -44 -20 -69 -23 -85 -12
-169 39 -191 116 -15 55 -120 330 -126 330 -3 0 -72 -145 -154 -322 -218 -476
-250 -539 -289 -584 l-36 -42 263 -223 c326 -278 354 -304 380 -354 30 -56 29
-172 -2 -232 -23 -45 -856 -991 -916 -1041 -61 -50 -153 -65 -237 -40 -51 15
-121 77 -147 131 -30 61 -29 158 2 218 12 25 175 217 362 427 187 211 341 387
343 391 2 8 -578 511 -615 534 -8 5 -72 -94 -193 -295 -190 -317 -242 -393
-284 -415 -14 -8 -243 -88 -508 -179 -266 -91 -510 -179 -543 -195 -210 -102
-430 81 -363 304 6 21 30 59 52 83 l41 45 500 167 499 167 296 496 c162 273
306 522 319 553 13 31 133 294 267 583 134 290 242 528 241 528 -15 11 -373
103 -378 97 -3 -4 -63 -155 -134 -337 -70 -181 -137 -347 -148 -368 -82 -148
-317 -84 -317 87 0 39 320 873 353 920 26 36 110 76 164 76 23 0 221 -50 440
-110z"/>
</g>
</svg>
